<svg width="24" height="24" viewBox="0 0 24 24" fill="none" xmlns="http://www.w3.org/2000/svg"> <g id="iconmonstr-police-1 1"> <path id="Vector" d="M20.377 11.082C20.317 13.011 18.148 14.208 11.968 14.208C5.775 14.208 3.61 13.005 3.559 11.069C5.067 11.069 7.938 9.111 11.968 9.111C15.895 9.11 19.112 11.082 20.377 11.082ZM11.969 15.172C9.907 15.172 8.229 15.041 6.891 14.775C6.953 15.33 7.36 18.097 9.3 18.097C11.021 18.097 10.973 16.781 12.021 16.781C13.068 16.781 13.19 18.097 14.873 18.097C16.963 18.097 17.333 15.034 17.367 14.708C15.98 15.019 14.198 15.172 11.969 15.172V15.172ZM18.374 14.431C18.334 16.602 17.657 19.2 16.094 20.868C15.046 21.987 13.717 22.555 12.145 22.555C10.57 22.555 9.247 22.022 8.214 20.973C6.568 19.3 5.912 16.628 5.818 14.512C5.295 14.354 4.808 14.165 4.334 13.884C4.318 16.356 5.038 19.826 7.155 21.978C8.476 23.319 10.155 24 12.145 24C14.117 24 15.857 23.255 17.178 21.847C19.309 19.574 19.938 16.168 19.839 13.736C19.38 14.044 18.895 14.257 18.374 14.431V14.431ZM12.137 3.447L11.824 4.07L11.123 4.17L11.63 4.655L11.511 5.34L12.137 5.016L12.764 5.34L12.644 4.655L13.151 4.17L12.451 4.07L12.137 3.447ZM19.348 3.241C19.348 3.241 16.811 2.555 12 0C7.188 2.555 4.652 3.241 4.652 3.241C4.652 3.241 3.357 5.641 1 8.257L3.266 10.165C4.799 10 7.906 8.083 12 8.083C16.094 8.083 19.201 10 20.734 10.166L23 8.257C20.643 5.641 19.348 3.241 19.348 3.241V3.241ZM13.003 6.455C12.477 6.586 12.398 6.643 12.128 6.857C11.859 6.643 11.779 6.586 11.253 6.455C10.522 6.272 10.102 5.799 10.102 5.156C10.102 4.797 10.249 4.465 10.42 4.01C10.612 3.497 10.503 3.335 10.301 3.128L10.13 2.952L11.117 2.133C11.215 2.231 11.352 2.411 11.603 2.411C11.851 2.411 12.019 2.236 12.131 2.14C12.233 2.23 12.399 2.411 12.654 2.411C12.902 2.411 13.035 2.24 13.144 2.13L14.127 2.953L13.955 3.129C13.753 3.336 13.644 3.498 13.836 4.011C14.006 4.466 14.154 4.797 14.154 5.157C14.154 5.798 13.734 6.272 13.003 6.455V6.455Z" fill="black"/> </g></svg>
