<svg width="70" height="70" viewBox="0 0 70 70" fill="none" xmlns="http://www.w3.org/2000/svg">
<path d="M62.3438 35C62.347 39.2456 61.3601 43.4334 59.4614 47.2307C57.5627 51.028 54.8046 54.3303 51.4062 56.875V63.4375C51.4062 64.3077 51.0605 65.1423 50.4452 65.7577C49.8298 66.373 48.9952 66.7188 48.125 66.7188C47.2548 66.7188 46.4202 66.373 45.8048 65.7577C45.1895 65.1423 44.8438 64.3077 44.8438 63.4375V60.5062C38.5099 62.9563 31.4901 62.9563 25.1562 60.5062V63.4375C25.1562 64.3077 24.8105 65.1423 24.1952 65.7577C23.5798 66.373 22.7452 66.7188 21.875 66.7188C21.0048 66.7188 20.1702 66.373 19.5548 65.7577C18.9395 65.1423 18.5938 64.3077 18.5938 63.4375V56.875C15.1978 54.328 12.4414 51.0253 10.543 47.2285C8.64459 43.4317 7.65625 39.245 7.65625 35C7.65625 30.755 8.64459 26.5683 10.543 22.7715C12.4414 18.9747 15.1978 15.672 18.5938 13.125L21.875 3.28125L25.5172 9.35156C31.637 7.09114 38.363 7.09114 44.4828 9.35156L48.125 3.28125L51.4062 13.125C54.8046 15.6697 57.5627 18.972 59.4614 22.7693C61.3601 26.5666 62.347 30.7544 62.3438 35V35Z" fill="#8FD849"/>
<path d="M45.9375 28.4375C45.936 29.9656 45.6142 31.4764 44.9931 32.8726C44.3719 34.2688 43.465 35.5193 42.331 36.5435C41.1969 37.5677 39.8608 38.343 38.4089 38.8192C36.9569 39.2955 35.4212 39.4622 33.9008 39.3086C32.3804 39.1551 30.9091 38.6846 29.5817 37.9276C28.2542 37.1706 27.1002 36.1438 26.1939 34.9135C25.2875 33.6832 24.6491 32.2766 24.3197 30.7844C23.9902 29.2922 23.9772 27.7475 24.2812 26.25H45.7187C45.8646 26.97 45.9379 27.7029 45.9375 28.4375V28.4375Z" fill="#FFDA44"/>
<path d="M30.5922 45.9375L27.3437 51.4062L24.0625 45.9375H30.5922Z" fill="#D80027"/>
<path d="M41.5625 26.25C41.5625 27.9905 40.8711 29.6597 39.6404 30.8904C38.4097 32.1211 36.7405 32.8125 35 32.8125C33.2595 32.8125 31.5903 32.1211 30.3596 30.8904C29.1289 29.6597 28.4375 27.9905 28.4375 26.25H41.5625Z" fill="#D80027"/>
<path d="M36.0938 26.25C36.0938 25.6459 35.6041 25.1562 35 25.1562C34.3959 25.1562 33.9062 25.6459 33.9062 26.25V28.4375C33.9062 29.0416 34.3959 29.5312 35 29.5312C35.6041 29.5312 36.0938 29.0416 36.0938 28.4375V26.25Z" fill="#231F20"/>
<path d="M20.7812 44.8438H49.2188V47.0312H20.7812V44.8438Z" fill="#57565C"/>
<path d="M45.7187 26.25H24.2812C24.7833 23.7775 26.1247 21.5546 28.0782 19.9579C30.0316 18.3612 32.477 17.489 35 17.489C37.523 17.489 39.9684 18.3612 41.9218 19.9579C43.8753 21.5546 45.2167 23.7775 45.7187 26.25V26.25Z" fill="#ACABB1"/>
<path d="M19.0427 22.8741C20.9646 20.9523 21.8301 18.7019 20.9759 17.8478C20.1218 16.9936 17.8714 17.8592 15.9496 19.781C14.0278 21.7028 13.1623 23.9532 14.0164 24.8073C14.8706 25.6614 17.1209 24.7959 19.0427 22.8741Z" fill="#B2EE78"/>
</svg>
