<svg width="51" height="76" viewBox="0 0 51 76" fill="none" xmlns="http://www.w3.org/2000/svg">
<ellipse cx="41.5957" cy="16.1582" rx="6.0532" ry="7.8135" fill="#8FD849"/>
<ellipse cx="7.82517" cy="16.1582" rx="6.0532" ry="7.8135" fill="#8FD849"/>
<mask id="mask0" mask-type="alpha" maskUnits="userSpaceOnUse" x="21" y="4" width="26" height="25">
<ellipse cx="34.0557" cy="16.759" rx="12.0208" ry="12.3188" transform="rotate(-90 34.0557 16.759)" fill="#AEDFEA"/>
</mask>
<g mask="url(#mask0)">
<ellipse cx="34.4217" cy="16.168" rx="16.7502" ry="15.368" transform="rotate(-90 34.4217 16.168)" fill="#833123"/>
</g>
<path d="M24.6408 44.013L35.9244 40.6469L41.2585 50.6078C42.6374 52.9531 45.4062 53.7202 47.5528 52.3517C47.6295 52.2605 47.7826 52.1833 47.9748 52.0863C48.905 51.617 50.7523 50.685 49.3024 45.4793C47.5528 39.1979 44.7087 36.1927 40.6732 32.2859C37.203 28.9265 35.9194 29.1026 34.4904 29.2987C34.2576 29.3306 34.021 29.3631 33.7704 29.3809C32.9891 29.5118 33.1482 29.6728 33.347 29.874C33.5589 30.0885 33.8161 30.3489 33.0269 30.6673L24.6408 44.013Z" fill="#8FD849"/>
<path d="M24.6408 44.013L35.9244 40.6469L41.2585 50.6078C42.6374 52.9531 45.4062 53.7202 47.5528 52.3517C47.6295 52.2605 47.7826 52.1833 47.9748 52.0863C48.905 51.617 50.7523 50.685 49.3024 45.4793C47.5528 39.1979 44.7087 36.1927 40.6732 32.2859C37.203 28.9265 35.9194 29.1026 34.4904 29.2987C34.2576 29.3306 34.021 29.3631 33.7704 29.3809C32.9891 29.5118 33.1482 29.6728 33.347 29.874C33.5589 30.0885 33.8161 30.3489 33.0269 30.6673L24.6408 44.013Z" stroke="black"/>
<path d="M25.4716 44.7444L14.1879 41.3783L8.85379 51.3392C7.47491 53.6846 4.70611 54.4517 2.55954 53.0831C2.48281 52.992 2.32974 52.9148 2.1375 52.8178C1.20726 52.3484 -0.639996 51.4164 0.809951 46.2107C2.55953 39.9293 5.40365 36.9241 9.43913 33.0174C12.9093 29.6579 14.1929 29.834 15.6219 30.0301C15.8547 30.0621 16.0913 30.0945 16.3419 30.1123C17.1232 30.2432 16.9641 30.4042 16.7653 30.6054C16.5534 30.82 16.2962 31.0803 17.0854 31.3987L25.4716 44.7444Z" fill="#8FD849"/>
<path d="M25.4716 44.7444L14.1879 41.3783L8.85379 51.3392C7.47491 53.6846 4.70611 54.4517 2.55954 53.0831C2.48281 52.992 2.32974 52.9148 2.1375 52.8178C1.20726 52.3484 -0.639996 51.4164 0.809951 46.2107C2.55953 39.9293 5.40365 36.9241 9.43913 33.0174C12.9093 29.6579 14.1929 29.834 15.6219 30.0301C15.8547 30.0621 16.0913 30.0945 16.3419 30.1123C17.1232 30.2432 16.9641 30.4042 16.7653 30.6054C16.5534 30.82 16.2962 31.0803 17.0854 31.3987L25.4716 44.7444Z" stroke="black"/>
<mask id="mask1" mask-type="alpha" maskUnits="userSpaceOnUse" x="26" y="40" width="13" height="27">
<path d="M27.6101 46.6106C27.6101 46.6106 34.7991 35.5915 37.6664 43.1045C40.5338 50.6175 36.212 58.5884 36.212 66.1777H27.6101C27.6101 58.5884 25.5924 54.1235 27.6101 46.6106Z" fill="#FBFDFF"/>
</mask>
<g mask="url(#mask1)">
<rect x="21.0999" y="41.6021" width="19.7526" height="28.8498" fill="#8FD849"/>
<mask id="mask2" mask-type="alpha" maskUnits="userSpaceOnUse" x="11" y="25" width="30" height="32">
<ellipse cx="25.9848" cy="41.3013" rx="14.6551" ry="15.3265" fill="#AEDFEA"/>
</mask>
<g mask="url(#mask2)">
<path d="M47.1267 41.7566C47.1267 52.3164 37.9839 60.8768 26.7056 60.8768C15.4274 60.8768 6.28455 52.3164 6.28455 41.7566C6.28455 31.1969 15.4274 22.6365 26.7056 22.6365C37.9839 22.6365 47.1267 31.1969 47.1267 41.7566Z" fill="#833123"/>
</g>
</g>
<mask id="mask3" mask-type="alpha" maskUnits="userSpaceOnUse" x="10" y="42" width="14" height="25">
<path d="M11.2235 43.1044C11.2235 43.1044 19.5068 39.2978 22.3742 46.8108C25.2415 54.3238 22.3742 58.6551 22.3742 66.2444H13.7723C13.7723 58.6551 9.20578 50.6174 11.2235 43.1044Z" fill="#FBFDFF"/>
</mask>
<g mask="url(#mask3)">
<rect x="6.0199" y="36.5933" width="20.6021" height="33.0571" fill="#8FD849"/>
<mask id="mask4" mask-type="alpha" maskUnits="userSpaceOnUse" x="8" y="25" width="31" height="32">
<ellipse cx="23.4361" cy="40.9007" rx="14.6551" ry="15.3265" fill="#AEDFEA"/>
</mask>
<g mask="url(#mask4)">
<ellipse cx="24.1568" cy="41.356" rx="20.4211" ry="19.1202" fill="#833123"/>
</g>
</g>
<mask id="mask5" mask-type="alpha" maskUnits="userSpaceOnUse" x="3" y="4" width="25" height="25">
<ellipse cx="15.5776" cy="16.5588" rx="12.0208" ry="12.3188" transform="rotate(-90 15.5776 16.5588)" fill="#AEDFEA"/>
</mask>
<g mask="url(#mask5)">
<ellipse cx="15.9434" cy="15.9678" rx="16.7502" ry="15.368" transform="rotate(-90 15.9434 15.9678)" fill="#833123"/>
</g>
<mask id="mask6" mask-type="alpha" maskUnits="userSpaceOnUse" x="10" y="23" width="30" height="32">
<ellipse cx="24.9228" cy="39.3983" rx="14.8675" ry="15.4267" fill="#F2F6FC"/>
</mask>
<g mask="url(#mask6)">
<ellipse cx="24.8056" cy="39.5686" rx="16.2865" ry="18.291" fill="#8FD849"/>
<ellipse cx="24.8056" cy="17.5193" rx="20.2955" ry="18.291" fill="#EBF3FF"/>
</g>
<ellipse cx="24.8166" cy="17.26" rx="20.0711" ry="16.5286" fill="#8FD849"/>
<mask id="mask7" mask-type="alpha" maskUnits="userSpaceOnUse" x="10" y="6" width="30" height="24">
<ellipse cx="24.8166" cy="18.3618" rx="14.5489" ry="11.6201" fill="#AEDFEA"/>
</mask>
<g mask="url(#mask7)">
<ellipse cx="25.5321" cy="18.7068" rx="20.2731" ry="14.4963" fill="#833123"/>
<mask id="mask8" mask-type="alpha" maskUnits="userSpaceOnUse" x="11" y="8" width="27" height="21">
<ellipse cx="24.9229" cy="18.462" rx="12.956" ry="10.1175" fill="#AEDFEA"/>
</mask>
<g mask="url(#mask8)">
<ellipse cx="25.56" cy="18.7624" rx="18.0534" ry="12.6218" fill="#A5DDE5"/>
<ellipse cx="22.5866" cy="19.9644" rx="13.1684" ry="10.418" fill="#C7E4C7"/>
</g>
</g>
<mask id="mask9" mask-type="alpha" maskUnits="userSpaceOnUse" x="16" y="36" width="18" height="13">
<ellipse cx="24.8166" cy="42.6036" rx="8.81431" ry="6.01038" fill="#AEDFEA"/>
</mask>
<g mask="url(#mask9)">
<ellipse cx="25.2501" cy="42.7823" rx="12.2822" ry="7.4981" fill="#833123"/>
<g filter="url(#filter0_d)">
<path d="M28.1086 39.398C28.1086 40.1726 27.443 40.8005 26.6219 40.8005C25.8008 40.8005 25.1351 40.1726 25.1351 39.398C25.1351 38.6235 25.8008 37.9956 26.6219 37.9956C27.443 37.9956 28.1086 38.6235 28.1086 39.398Z" fill="#8FD849"/>
</g>
<g filter="url(#filter1_d)">
<ellipse cx="19.6131" cy="40.3997" rx="1.48675" ry="1.40242" fill="#8FD849"/>
</g>
<g filter="url(#filter2_d)">
<ellipse cx="23.0113" cy="39.398" rx="1.48675" ry="1.40242" fill="#8FD849"/>
</g>
<g filter="url(#filter3_d)">
<ellipse cx="30.2326" cy="40.3997" rx="1.48675" ry="1.40242" fill="#8FD849"/>
</g>
<g filter="url(#filter4_d)">
<rect x="22.799" y="42.2029" width="4.03547" height="4.60796" rx="2.01773" fill="#8FD849"/>
</g>
</g>
<mask id="mask10" mask-type="alpha" maskUnits="userSpaceOnUse" x="27" y="63" width="12" height="10">
<ellipse rx="3.81692" ry="5.53638" transform="matrix(0.4673 -0.884099 0.904919 0.425585 32.7785 67.9685)" fill="#BC3B52"/>
</mask>
<g mask="url(#mask10)">
<ellipse cx="33.9496" cy="68.0473" rx="9.0267" ry="5.81004" fill="#833123"/>
<path d="M31.7976 68.3318L31.3988 67.6242C31.3988 67.6242 32.794 66.1961 33.936 65.6314C35.0467 65.0822 37.0247 64.8025 37.0247 64.8025L37.4236 65.5101C37.4236 65.5101 35.5271 65.9725 34.4285 66.5189C33.303 67.0786 31.7976 68.3318 31.7976 68.3318Z" fill="#8FD849"/>
<path d="M32.6473 69.7344L32.2485 69.0268C32.2485 69.0268 33.6437 67.5987 34.7857 67.034C35.8965 66.4848 37.8744 66.2051 37.8744 66.2051L38.2733 66.9127C38.2733 66.9127 36.3769 67.3751 35.2782 67.9215C34.1527 68.4812 32.6473 69.7344 32.6473 69.7344Z" fill="#8FD849"/>
</g>
<mask id="mask11" mask-type="alpha" maskUnits="userSpaceOnUse" x="11" y="63" width="12" height="9">
<ellipse rx="3.90674" ry="5.41211" transform="matrix(0.472468 0.856124 -0.917502 0.450531 17.2643 67.1843)" fill="#BC3B52"/>
</mask>
<g mask="url(#mask11)">
<ellipse rx="8.69501" ry="6.04098" transform="matrix(-0.610208 0.792241 -0.824875 -0.565315 16.5081 68.0314)" fill="#833123"/>
<path d="M11.7544 65.6868L12.2597 65.0426C12.2597 65.0426 14.2269 65.6156 15.2589 66.3448C16.2626 67.054 17.3817 68.6177 17.3817 68.6177L16.8764 69.2619C16.8764 69.2619 15.6175 67.8464 14.6217 67.1462C13.6016 66.4289 11.7544 65.6868 11.7544 65.6868Z" fill="#8FD849"/>
<path d="M12.8164 64.6851L13.3218 64.0409C13.3218 64.0409 15.2889 64.6139 16.3209 65.3431C17.3246 66.0523 18.4438 67.616 18.4438 67.616L17.9384 68.2602C17.9384 68.2602 16.6795 66.8446 15.6837 66.1445C14.6636 65.4272 12.8164 64.6851 12.8164 64.6851Z" fill="#8FD849"/>
</g>
<path d="M22.6606 56.9073C21.6875 55.234 22.9132 53.0149 24.8489 53.0297C26.734 53.0442 28.0814 55.1593 27.2371 56.8448C27.1437 57.0313 27.0395 57.2251 26.9215 57.4293C26.0527 58.9319 24.0119 59.0321 22.9807 57.4293C22.8628 57.2461 22.7569 57.0728 22.6606 56.9073Z" fill="#FFFAE8"/>
<path d="M33.9644 42.2231C38.3705 45.4928 44.1297 45.6094 40.9733 41.622C37.8169 37.6347 37.9977 36.39 43.4158 41.8224C48.834 47.2548 38.8445 48.4187 33.4333 43.7257C28.0221 39.0327 29.5583 38.9533 33.9644 42.2231Z" fill="#FFFAE8"/>
<path d="M16.1451 42.2231C11.739 45.4928 5.97981 45.6094 9.13619 41.622C12.2926 37.6347 12.1118 36.39 6.69365 41.8224C1.27548 47.2548 11.265 48.4187 16.6762 43.7257C22.0874 39.0327 20.5512 38.9533 16.1451 42.2231Z" fill="#FFFAE8"/>
<defs>
<filter id="filter0_d" x="21.1351" y="37.9956" width="10.9735" height="10.8048" filterUnits="userSpaceOnUse" color-interpolation-filters="sRGB">
<feFlood flood-opacity="0" result="BackgroundImageFix"/>
<feColorMatrix in="SourceAlpha" type="matrix" values="0 0 0 0 0 0 0 0 0 0 0 0 0 0 0 0 0 0 127 0"/>
<feOffset dy="4"/>
<feGaussianBlur stdDeviation="2"/>
<feColorMatrix type="matrix" values="0 0 0 0 0 0 0 0 0 0 0 0 0 0 0 0 0 0 0.25 0"/>
<feBlend mode="normal" in2="BackgroundImageFix" result="effect1_dropShadow"/>
<feBlend mode="normal" in="SourceGraphic" in2="effect1_dropShadow" result="shape"/>
</filter>
<filter id="filter1_d" x="14.1263" y="38.9973" width="10.9735" height="10.8048" filterUnits="userSpaceOnUse" color-interpolation-filters="sRGB">
<feFlood flood-opacity="0" result="BackgroundImageFix"/>
<feColorMatrix in="SourceAlpha" type="matrix" values="0 0 0 0 0 0 0 0 0 0 0 0 0 0 0 0 0 0 127 0"/>
<feOffset dy="4"/>
<feGaussianBlur stdDeviation="2"/>
<feColorMatrix type="matrix" values="0 0 0 0 0 0 0 0 0 0 0 0 0 0 0 0 0 0 0.25 0"/>
<feBlend mode="normal" in2="BackgroundImageFix" result="effect1_dropShadow"/>
<feBlend mode="normal" in="SourceGraphic" in2="effect1_dropShadow" result="shape"/>
</filter>
<filter id="filter2_d" x="17.5245" y="37.9956" width="10.9735" height="10.8048" filterUnits="userSpaceOnUse" color-interpolation-filters="sRGB">
<feFlood flood-opacity="0" result="BackgroundImageFix"/>
<feColorMatrix in="SourceAlpha" type="matrix" values="0 0 0 0 0 0 0 0 0 0 0 0 0 0 0 0 0 0 127 0"/>
<feOffset dy="4"/>
<feGaussianBlur stdDeviation="2"/>
<feColorMatrix type="matrix" values="0 0 0 0 0 0 0 0 0 0 0 0 0 0 0 0 0 0 0.25 0"/>
<feBlend mode="normal" in2="BackgroundImageFix" result="effect1_dropShadow"/>
<feBlend mode="normal" in="SourceGraphic" in2="effect1_dropShadow" result="shape"/>
</filter>
<filter id="filter3_d" x="24.7458" y="38.9973" width="10.9735" height="10.8048" filterUnits="userSpaceOnUse" color-interpolation-filters="sRGB">
<feFlood flood-opacity="0" result="BackgroundImageFix"/>
<feColorMatrix in="SourceAlpha" type="matrix" values="0 0 0 0 0 0 0 0 0 0 0 0 0 0 0 0 0 0 127 0"/>
<feOffset dy="4"/>
<feGaussianBlur stdDeviation="2"/>
<feColorMatrix type="matrix" values="0 0 0 0 0 0 0 0 0 0 0 0 0 0 0 0 0 0 0.25 0"/>
<feBlend mode="normal" in2="BackgroundImageFix" result="effect1_dropShadow"/>
<feBlend mode="normal" in="SourceGraphic" in2="effect1_dropShadow" result="shape"/>
</filter>
<filter id="filter4_d" x="18.799" y="42.2029" width="12.0355" height="12.608" filterUnits="userSpaceOnUse" color-interpolation-filters="sRGB">
<feFlood flood-opacity="0" result="BackgroundImageFix"/>
<feColorMatrix in="SourceAlpha" type="matrix" values="0 0 0 0 0 0 0 0 0 0 0 0 0 0 0 0 0 0 127 0"/>
<feOffset dy="4"/>
<feGaussianBlur stdDeviation="2"/>
<feColorMatrix type="matrix" values="0 0 0 0 0 0 0 0 0 0 0 0 0 0 0 0 0 0 0.25 0"/>
<feBlend mode="normal" in2="BackgroundImageFix" result="effect1_dropShadow"/>
<feBlend mode="normal" in="SourceGraphic" in2="effect1_dropShadow" result="shape"/>
</filter>
</defs>
</svg>
