<svg width="70" height="90" viewBox="0 0 70 90" fill="none" xmlns="http://www.w3.org/2000/svg">
<path d="M28.5389 33.3164V49.9542V50.1389L28.4942 50.318L25.9372 60.5457L25.9367 60.548C25.8517 60.8857 25.9278 61.244 26.1424 61.5182L26.1442 61.5206C26.3587 61.7959 26.689 61.957 27.0389 61.957H27.4746L27.8425 62.1904L31.631 64.5937L28.5389 33.3164ZM28.5389 33.3164H41.3593H28.5389ZM46.6327 20.5291L40.7409 25.0429H28.5589L23.2655 20.5729V19.8764C23.2655 12.1525 27.5554 5.06219 34.4405 1.61975C34.7598 1.4601 35.1382 1.46008 35.4576 1.61969L46.6327 20.5291ZM46.6327 20.5291V19.8764C46.6327 12.1525 42.3428 5.06227 35.4577 1.61975L46.6327 20.5291ZM22.9896 33.4014L24.0281 51.7317L14.3676 56.562C14.3673 56.5621 14.367 56.5623 14.3666 56.5625C14.0002 56.744 13.5836 56.7158 13.2622 56.5159L13.2596 56.5143C12.9217 56.3051 12.7186 55.9393 12.7186 55.5469V45C12.7186 39.0373 17.2122 34.1012 22.9896 33.4014ZM45.8701 51.7317L46.9086 33.4014L55.5321 56.5627C55.5316 56.5625 55.5312 56.5623 55.5307 56.562L45.8701 51.7317Z" fill="url(#paint0_linear)" stroke="#3D3C37" stroke-width="3"/>
<path d="M28.539 68.8001V64.9571H41.3593V68.8001C41.3593 72.4969 44.3663 75.5039 48.0631 75.5039C49.9442 75.5039 51.2358 74.1022 51.6993 73.5373C53.4288 71.4317 55.9703 70.2305 58.6796 70.2305C63.6679 70.2305 67.7265 74.289 67.7265 79.2774C67.7265 84.2981 63.636 88.5 58.6796 88.5H11.2186C6.26227 88.5 2.17175 84.2981 2.17175 79.2774C2.17175 74.289 6.23028 70.2305 11.2186 70.2305C13.9282 70.2305 16.4695 71.4319 18.1964 73.5345C18.6609 74.1002 19.953 75.5039 21.8351 75.5039C25.5319 75.5039 28.539 72.4969 28.539 68.8001ZM46.6327 50.2734C46.6327 50.9024 46.125 51.4102 45.496 51.4102H24.4022C23.7733 51.4102 23.2655 50.9024 23.2655 50.2734V22.7695H46.6327V50.2734ZM39.0858 34.4528C39.0858 32.1682 37.2337 30.3161 34.9491 30.3161C32.664 30.3161 30.8124 32.1683 30.8124 34.4528C30.8124 36.7377 32.6642 38.5895 34.9491 38.5895C37.2336 38.5895 39.0858 36.7379 39.0858 34.4528Z" fill="url(#paint1_linear)" stroke="#3D3C37" stroke-width="3"/>
<defs>
<linearGradient id="paint0_linear" x1="34.9491" y1="66.0937" x2="34.9491" y2="-4.33345e-05" gradientUnits="userSpaceOnUse">
<stop stop-color="#BF1212"/>
<stop offset="1" stop-color="#F69100"/>
</linearGradient>
<linearGradient id="paint1_linear" x1="34.9491" y1="90" x2="34.9491" y2="21.2695" gradientUnits="userSpaceOnUse">
<stop stop-color="#F69100"/>
<stop offset="0.140625" stop-color="#FAD862"/>
<stop offset="0.333333" stop-color="#FFFAE8"/>
<stop offset="1" stop-color="#FFFAE8"/>
</linearGradient>
</defs>
</svg>
