<svg width="63" height="67" viewBox="0 0 63 67" fill="none" xmlns="http://www.w3.org/2000/svg">
<g clip-path="url(#clip0)">
<path d="M31.5 51.4483C44.4102 51.4483 55.1884 53.8589 57.8533 57.0785L47.6192 41.2529L46.881 41.4469C37.5118 43.9005 25.4862 43.9005 16.1171 41.4469L15.3788 41.2529L4.97974 57.2743H4.9945C7.37584 53.957 18.3292 51.4483 31.5 51.4483Z" fill="#DEEFDD"/>
<path d="M31.5 44.2657C48.897 44.2657 63 37.8378 63 29.9086C63 21.9794 48.897 15.5515 31.5 15.5515C14.1031 15.5515 0.00012207 21.9794 0.00012207 29.9086C0.00012207 37.8378 14.1031 44.2657 31.5 44.2657Z" fill="#7F8FA0"/>
<path d="M31.4999 40.0444C15.6507 40.0444 2.57287 34.7039 0.36478 27.7588C0.129375 28.4614 0 29.1797 0 29.9127C0 37.8418 14.103 44.2698 31.4999 44.2698C48.8969 44.2698 62.9999 37.8418 62.9999 29.9127C62.9999 29.1795 62.8705 28.4612 62.6351 27.7588C60.4271 34.7037 47.3492 40.0444 31.4999 40.0444Z" fill="#738394"/>
<path d="M13.6366 18.0933C13.5581 18.8494 13.5088 19.6127 13.52 20.3883C13.5304 21.1081 13.8772 21.7887 14.4203 22.2186C18.2935 25.2843 22.6376 27.5199 31.5 27.5199C40.3625 27.5199 44.7065 25.2841 48.5799 22.2186C49.1227 21.7889 49.4695 21.1083 49.4797 20.3888C49.4908 19.6133 49.4412 18.8499 49.3623 18.0931C44.2846 16.4959 38.1361 15.5557 31.4999 15.5557C24.8634 15.5555 18.7144 16.4959 13.6366 18.0933Z" fill="#A6B5C8"/>
<path d="M48.7061 22.0618C46.5151 20.2935 39.6775 18.9954 31.5001 18.9954C23.3227 18.9954 16.485 20.2935 14.2941 22.0619C14.343 22.1083 14.3675 22.1767 14.4203 22.2185C18.2936 25.2842 22.6376 27.5199 31.5001 27.5199C40.3625 27.5199 44.7065 25.2841 48.5799 22.2185C48.6326 22.1768 48.6571 22.1082 48.7061 22.0618Z" fill="#7F8FA0"/>
<path d="M48.7061 22.0618C46.5151 20.2935 39.6775 18.9954 31.5001 18.9954C23.3227 18.9954 16.485 20.2935 14.2941 22.0619C14.343 22.1083 14.3675 22.1767 14.4203 22.2185C18.2936 25.2842 22.6376 27.5199 31.5001 27.5199C40.3625 27.5199 44.7065 25.2841 48.5799 22.2185C48.6326 22.1768 48.6571 22.1082 48.7061 22.0618Z" fill="#8D9DAE"/>
<path d="M31.5 15.5556C38.1361 15.5556 44.2846 16.4958 49.3624 18.0931C48.3973 8.8257 40.8908 1.19849 31.5 1.19849C22.1442 1.19849 14.6018 8.79549 13.6367 18.0934C18.7145 16.496 24.8635 15.5556 31.5 15.5556Z" fill="#CDDCF0"/>
<path d="M31.5 29.9128C29.0147 29.9128 27 32.0553 27 34.6985C27 37.3417 29.0147 39.4842 31.5 39.4842C33.9852 39.4842 36 37.3417 36 34.6985C36 32.0553 33.9854 29.9128 31.5 29.9128Z" fill="#A6B5C8"/>
<path d="M11.25 26.3235C8.76473 26.3235 6.75 28.466 6.75 31.1092C6.75 33.7524 8.76473 35.8949 11.25 35.8949C13.7353 35.8949 15.75 33.7524 15.75 31.1092C15.75 28.466 13.7354 26.3235 11.25 26.3235Z" fill="#A6B5C8"/>
<path d="M51.7499 26.3235C49.2646 26.3235 47.2499 28.466 47.2499 31.1092C47.2499 33.7524 49.2646 35.8949 51.7499 35.8949C54.2351 35.8949 56.2499 33.7524 56.2499 31.1092C56.2499 28.466 54.2353 26.3235 51.7499 26.3235Z" fill="#A6B5C8"/>
<path d="M31.5001 65.8014C46.4117 65.8014 58.5 62.5875 58.5 58.6229C58.5 54.6583 46.4117 51.4443 31.5001 51.4443C16.5884 51.4443 4.50012 54.6583 4.50012 58.6229C4.50012 62.5875 16.5884 65.8014 31.5001 65.8014Z" fill="#C7E4C7"/>
<path d="M31.5 32.3057C32.7406 32.3057 33.75 33.3792 33.75 34.6985C33.75 36.0179 32.7406 37.0914 31.5 37.0914C30.2594 37.0914 29.25 36.0179 29.25 34.6985C29.25 33.3792 30.2594 32.3057 31.5 32.3057Z" fill="#5886C5"/>
<path d="M11.25 28.7163C12.4906 28.7163 13.5 29.7898 13.5 31.1092C13.5 32.4285 12.4906 33.502 11.25 33.502C10.0094 33.502 9 32.4285 9 31.1092C9 29.7898 10.0094 28.7163 11.25 28.7163Z" fill="#EE6058"/>
<path d="M51.7499 28.7163C52.9905 28.7163 53.9999 29.7898 53.9999 31.1092C53.9999 32.4285 52.9905 33.502 51.7499 33.502C50.5093 33.502 49.4999 32.4285 49.4999 31.1092C49.4999 29.7898 50.5093 28.7163 51.7499 28.7163Z" fill="#EB7A25"/>
</g>
<defs>
<clipPath id="clip0">
<rect width="63" height="67" fill="white"/>
</clipPath>
</defs>
</svg>
